<svg width="83" height="61" viewBox="0 0 83 61" fill="none" xmlns="http://www.w3.org/2000/svg">
<path fill-rule="evenodd" clip-rule="evenodd" d="M18.3391 7.83958C18.4756 6.80583 18.5852 5.68443 18.7271 4.66477C18.7766 4.30924 18.8129 3.96633 18.8565 3.61098L18.9539 2.82119C18.9718 2.69298 18.9545 2.58678 19.0153 2.58678H20.8842L21.0296 3.77249C21.0785 4.1718 21.1182 4.55824 21.174 4.95911C21.2298 5.35941 21.2646 5.74338 21.3202 6.14384C21.376 6.54463 21.4158 6.93107 21.4648 7.33054L21.902 10.8864C21.9257 11.0668 21.9336 11.031 21.7446 11.0304H20.7497L20.5712 9.17865C20.5619 9.10643 20.5479 9.00683 20.5479 8.91951H19.3244C19.3106 9.08639 19.2804 9.27594 19.2712 9.44422C19.2546 9.74137 19.2024 10.184 19.1754 10.5048C19.1613 10.6723 19.1367 10.8631 19.1229 11.0304H17.9531L18.0146 10.4867C18.1331 9.6299 18.2247 8.7049 18.339 7.83983L18.3391 7.83958ZM19.5856 6.31665C19.5602 6.4968 19.5587 6.6636 19.5358 6.84491L19.4321 7.9109H20.4405L20.1349 4.41156C20.1254 4.34066 20.1188 4.21261 20.1178 4.14624C20.1155 3.974 20.0775 3.78462 20.0775 3.6085H19.822C19.7668 3.6085 19.7805 3.6588 19.7814 3.71585L19.7539 4.13214C19.7144 4.64869 19.6578 5.26665 19.6336 5.77306L19.5856 6.31673V6.31665ZM27.9157 6.79494C27.9157 7.4961 27.9335 8.19321 27.9421 8.89296C27.9433 8.97855 27.9564 9.04376 27.9562 9.1479C27.956 9.34594 27.9601 9.71565 28.0321 9.86521C28.1694 10.1507 28.4793 10.1697 28.7898 10.1697H34.8131C34.9843 10.1697 35.1529 10.1596 35.282 10.1143C35.3804 10.0797 35.4521 10.028 35.5144 9.94329C35.6518 9.75613 35.6298 9.39475 35.6328 9.16076C35.6337 9.07732 35.647 9.02018 35.6467 8.91935C35.6452 8.26 35.6736 7.5398 35.6736 6.87566C35.6736 6.68883 35.6602 6.55147 35.6602 6.3648L35.6467 4.81862C35.6469 4.64275 35.6331 4.49517 35.6333 4.30776C35.6336 3.79533 35.5756 3.44731 34.9476 3.44731H28.6285C28.2912 3.44731 28.0697 3.57684 27.9988 3.83944C27.974 3.93129 27.9555 4.2141 27.956 4.30759C27.957 4.48676 27.9426 4.62511 27.9429 4.79182C27.9435 5.44318 27.9158 6.13691 27.9158 6.79503L27.9157 6.79494ZM58.1286 6.05768L57.9517 7.9109H58.96L58.9067 7.37267C58.8811 6.90938 58.7949 6.37115 58.7718 5.89418C58.769 5.8349 58.76 5.83836 58.7583 5.77331C58.7562 5.69391 58.7512 5.5765 58.7392 5.4966L58.6161 3.87185C58.6063 3.80556 58.5971 3.67083 58.5971 3.60858H58.3146C58.3027 3.6597 58.2888 3.81809 58.2875 3.87721L58.2332 4.69684C58.2 5.12088 58.1722 5.64221 58.1285 6.05776L58.1286 6.05768ZM62.2271 3.6085V6.98318H62.5902C63.2498 6.98318 63.4387 6.77763 63.4372 6.16305C63.437 6.05405 63.451 5.98743 63.451 5.89467V4.68373C63.451 4.59287 63.4369 4.53433 63.4372 4.42871C63.4398 3.53372 62.9856 3.6085 62.2271 3.6085ZM22.4706 7.9109H23.5193C23.5817 7.9109 23.5459 7.99104 23.546 8.07193C23.546 8.1383 23.5508 8.22232 23.5455 8.28663C23.515 8.65707 23.5413 9.07254 23.5457 9.44406C23.5512 9.91287 23.756 10.1756 24.2437 10.164C24.8131 10.1504 24.852 9.85103 24.9023 9.40135C24.911 9.32319 24.8973 9.24222 24.9079 9.16488C24.9333 8.97978 24.9037 8.74868 24.9042 8.56968L24.8888 8.20855C24.8679 8.01355 24.8115 7.75037 24.7184 7.62604C24.4002 7.20117 23.2009 7.40804 22.7098 6.62295C22.3458 6.04086 22.4169 5.12311 22.4169 4.40175C22.4169 3.81941 22.5232 3.29123 22.7962 2.97957C22.8691 2.89655 22.9329 2.82877 23.0395 2.76562C23.3063 2.60773 23.6732 2.52519 24.0458 2.50598H24.3903C24.6545 2.51959 24.9066 2.56411 25.1112 2.63518C25.3304 2.71136 25.5022 2.83644 25.6345 2.9992C26.1346 3.61502 25.9933 4.79966 25.9933 5.63858H24.8908C24.8908 5.35017 24.9043 5.10752 24.9043 4.81845C24.9043 4.48066 24.9446 3.88784 24.7779 3.66754C24.5882 3.41656 24.1216 3.39743 23.8596 3.51838C23.7616 3.56381 23.6998 3.63654 23.6538 3.72937C23.6027 3.83211 23.5801 3.92544 23.5632 4.05546C23.5545 4.12282 23.5578 4.20082 23.5501 4.25747C23.5413 4.32153 23.5464 4.39029 23.5464 4.45559C23.5464 4.9183 23.5101 5.50444 23.6749 5.90011C23.8968 6.43299 24.8574 6.183 25.5054 6.7317C25.9468 7.10528 26.0472 7.83282 26.0472 8.46216C26.0472 9.46615 26.1191 10.5852 25.1754 10.9649C24.9643 11.0499 24.6946 11.0974 24.4155 11.1107H24.0818C23.8185 11.0983 23.564 11.0565 23.3597 10.9882C22.9555 10.8532 22.7356 10.5904 22.5895 10.1986C22.407 9.70864 22.4364 8.89016 22.4434 8.32711C22.4444 8.24012 22.4709 8.06714 22.4709 7.91082L22.4706 7.9109ZM26.8511 9.75531C26.8097 9.41561 26.8116 9.01952 26.8134 8.66375C26.814 8.53793 26.7998 8.43974 26.7998 8.30081C26.7999 7.80801 26.7903 7.27678 26.7903 6.80838C26.7903 6.33998 26.7998 5.80884 26.7998 5.31612C26.7998 5.06861 26.8133 4.83758 26.8133 4.57671C26.8133 3.96015 26.8459 3.24102 27.3356 2.84032C27.6252 2.60319 28.1156 2.50615 28.5074 2.50615H35.0685C35.6278 2.50615 36.2438 2.65357 36.525 3.16055C36.6073 3.3088 36.6698 3.49184 36.7079 3.67669C36.7368 3.81661 36.7581 4.00245 36.7621 4.16034C36.7639 4.22902 36.7764 4.24304 36.7764 4.32079C36.7767 4.43737 36.7764 4.55445 36.7759 4.67095C36.7753 4.78622 36.7895 4.87708 36.7895 5.00685C36.7895 5.47847 36.803 5.91405 36.803 6.39168L36.7895 8.63704C36.7896 8.76871 36.7755 8.8477 36.776 8.9731C36.7774 9.34347 36.7717 9.58604 36.7052 9.95096C36.6404 10.3069 36.4752 10.6242 36.1845 10.8286C35.9322 11.006 35.5019 11.1108 35.0685 11.1108H28.5074C27.545 11.1108 26.9677 10.7124 26.8512 9.75531H26.8511ZM37.6665 9.97817C37.5732 9.58051 37.5688 8.84259 37.5822 8.39439L37.6085 8.04431C37.6127 7.98131 37.5878 7.91082 37.6498 7.91082H38.6984C38.6984 8.01289 38.6843 8.05766 38.6848 8.15256L38.6716 8.63696C38.6722 8.91135 38.6682 9.56617 38.7403 9.77823C38.7839 9.90685 38.8346 9.98897 38.9427 10.0599C39.1318 10.184 39.5313 10.1917 39.7296 10.0982C40.0713 9.93744 40.0564 9.40226 40.0564 8.98638C40.0564 8.57471 40.073 7.91865 39.8455 7.61087C39.7306 7.45586 39.5349 7.41406 39.3276 7.36228C39.1183 7.30993 38.9244 7.26194 38.7195 7.20398C38.4282 7.12169 38.067 6.94129 37.8941 6.68504C37.4901 6.08596 37.5556 5.2124 37.5556 4.46887C37.5556 4.0586 37.5972 3.54996 37.7884 3.20936C37.8327 3.13046 37.8473 3.0875 37.9164 3.00126C38.0517 2.83232 38.2326 2.71029 38.4614 2.63188C38.6767 2.55801 38.9674 2.50598 39.2497 2.50598C39.8038 2.50598 40.3759 2.54234 40.7588 2.97331C41.2133 3.48466 41.1455 4.43069 41.1455 5.14125C41.1455 5.3242 41.1319 5.45695 41.1319 5.63858H40.0295C40.0295 5.26377 40.0833 4.11738 40.0044 3.84851C39.9729 3.74067 39.9148 3.64074 39.8306 3.57866L39.665 3.48895C39.4162 3.39941 38.9295 3.41639 38.7789 3.75633C38.6645 4.0149 38.684 4.62758 38.6845 4.9803C38.6847 5.06119 38.698 5.07784 38.6989 5.15411C38.7025 5.44722 38.7143 5.70512 38.8459 5.96179C39.0982 6.45335 40.4666 6.16057 40.9348 7.09951C41.0995 7.42964 41.1857 7.87842 41.1857 8.36792C41.1857 8.89016 41.2066 9.43655 41.1085 9.93101C41.0543 10.2044 40.9767 10.3705 40.8337 10.584C40.577 10.9672 39.9684 11.1107 39.4917 11.1107C38.5581 11.1107 37.895 10.9517 37.6663 9.97817H37.6665ZM42.2586 10.5489C42.0731 10.2716 41.9748 9.87692 41.9652 9.55157L41.9387 5.98817L41.9516 4.33398C41.9526 4.2592 41.9654 4.24831 41.9662 4.17378C41.9702 3.7678 42.0786 3.34524 42.3267 3.04182C42.3439 3.02096 42.354 3.01288 42.3708 2.99194C42.5066 2.82292 42.7095 2.7112 42.9125 2.63271C43.3343 2.46946 44.1706 2.4683 44.5605 2.61358C44.6867 2.66058 44.9081 2.74871 45.0074 2.83883C45.0942 2.91757 45.15 2.95855 45.2223 3.06788C45.322 3.21876 45.3825 3.34178 45.4361 3.52622C45.5842 4.03477 45.5419 4.73666 45.5419 5.30252C45.5419 5.43337 45.5284 5.5098 45.5284 5.63858H44.3857L44.3992 4.25384C44.3992 3.95108 44.3815 3.68592 44.1412 3.54378C44.0757 3.50503 43.9817 3.47469 43.8983 3.46388C43.4992 3.41219 43.1918 3.52201 43.1157 3.9383L43.0945 4.23999C43.0914 4.34503 43.0948 4.45708 43.0948 4.56302C43.095 4.68554 43.0807 4.76148 43.0812 4.87213L43.068 5.8269C43.068 6.48757 43.047 7.43302 43.0815 8.07209L43.081 8.77168C43.0811 8.85833 43.0956 8.89197 43.0951 8.98613C43.0914 9.61803 43.0284 10.1695 43.7671 10.1695C44.2567 10.1695 44.4393 9.92029 44.4393 9.43012V7.92426H45.5822C45.5822 8.38153 45.6126 9.24972 45.5577 9.68803C45.5195 9.9926 45.4447 10.2692 45.3107 10.4763C45.2365 10.5909 45.1726 10.6726 45.068 10.7581C45.0124 10.8037 44.9802 10.8231 44.918 10.8634C44.6897 11.0114 44.2948 11.0952 43.8835 11.1107H43.6043C43.2021 11.0956 42.8167 11.0145 42.589 10.8637C42.4421 10.7663 42.356 10.6947 42.2585 10.5488L42.2586 10.5489ZM46.4158 10.9897V2.62702C46.4158 2.5961 46.4252 2.5867 46.4562 2.5867H47.5588V6.24368H48.7822V2.5867H49.925V11.0301H48.7822V7.2654H47.5588V11.0301H46.4562C46.4252 11.0301 46.4158 11.0207 46.4158 10.9897ZM50.9065 11.0301V2.5867H52.0091C52.04 2.5867 52.0493 2.5961 52.0493 2.62702V10.9897C52.0493 11.0207 52.04 11.0301 52.0091 11.0301H50.9065ZM53.0173 11.0301V2.5867H54.1603V10.0082H56.0425V11.0301H53.0173ZM57.2484 4.66666L57.4903 2.68985C57.4962 2.63526 57.4793 2.5867 57.5349 2.5867H59.4038C59.4056 2.66758 59.4319 2.8047 59.4416 2.88492L59.5503 3.77101C59.5696 3.97466 59.5955 4.16644 59.623 4.37075C59.7017 4.95936 59.7595 5.56364 59.8397 6.14384C59.8952 6.54438 59.9352 6.92975 59.9843 7.33037C60.032 7.71921 60.0855 8.12082 60.1297 8.516C60.1521 8.71487 60.1746 8.90912 60.2027 9.11533C60.2834 9.70757 60.3401 10.2963 60.4215 10.8864C60.4462 11.0647 60.4536 11.0308 60.2642 11.0302H59.2693C59.2557 10.8662 59.2228 10.6726 59.2156 10.5058C59.2084 10.338 59.1806 10.1405 59.1639 9.97932L59.0677 8.91935H57.8442L57.7656 9.71466C57.7559 9.80667 57.7572 9.88434 57.7443 9.9757L57.6958 10.5054C57.6865 10.6736 57.6563 10.8633 57.6425 11.0301H56.4727L56.7283 8.90583C56.7673 8.55393 56.8125 8.18406 56.8586 7.83958C56.9063 7.48291 56.9406 7.1428 56.9878 6.78554C57.0794 6.09082 57.1568 5.36073 57.2485 4.66675L57.2484 4.66666ZM61.0843 10.9897V2.62702C61.0843 2.5961 61.0937 2.5867 61.1246 2.5867H62.5364C62.9127 2.5867 63.2626 2.60789 63.5631 2.68927C64.4197 2.92169 64.5828 3.71989 64.58 4.49583C64.5795 4.60639 64.5942 4.66007 64.5936 4.76453C64.5931 4.85861 64.5935 4.95293 64.5935 5.04701C64.5935 5.84405 64.6683 6.89883 64.2248 7.46155C64.1349 7.57583 63.9398 7.75722 63.8002 7.7897C63.8053 7.85245 63.8378 7.94256 63.8555 8.00333C63.8743 8.06739 63.8919 8.13121 63.9124 8.20187C63.9831 8.44658 64.7081 10.9549 64.7143 11.03H63.5044L62.8052 8.34096C62.7888 8.2755 62.7747 8.21778 62.757 8.1472C62.7343 8.05717 62.7317 7.99137 62.6843 7.99137H62.227V11.03H61.1246C61.0936 11.03 61.0842 11.0206 61.0842 10.9896L61.0843 10.9897ZM68.6041 0H14.0634C13.1559 0 12.4133 0.742379 12.4133 1.64999V11.9669C12.4133 12.8745 13.1558 13.617 14.0634 13.617H68.6041C69.5116 13.617 70.2542 12.8746 70.2542 11.9669V1.64999C70.2542 0.742461 69.5117 0 68.6041 0Z" fill="white"/>
<path d="M14.88 47.7027H18.4622C19.3807 47.7027 19.8399 48.162 19.8399 49.0806V53.269C19.8399 58.0453 17.4518 60.4334 12.6755 60.4334H7.1644C2.38808 60.4334 0 58.0452 0 53.269V23.5089C0 18.7326 2.38816 16.3445 7.1644 16.3445H12.6755C17.4518 16.3445 19.8399 18.7326 19.8399 23.5089V27.6974C19.8399 28.6159 19.3807 29.0752 18.4622 29.0752H14.88C13.9615 29.0752 13.5022 28.6159 13.5022 27.6974V26.4298C13.5022 24.8499 13.3001 23.8304 12.896 23.3712C12.4918 22.9119 11.4998 22.6823 9.91996 22.6823C8.56044 22.6823 7.62365 22.8936 7.10924 23.3161C6.59484 23.7386 6.33768 24.7766 6.33768 26.4298V50.3481C6.33768 52.0013 6.59484 53.0394 7.10924 53.4619C7.62356 53.8843 8.56044 54.0956 9.91996 54.0956C10.618 54.0956 11.1231 54.0772 11.4355 54.0405C11.7478 54.0038 12.0969 53.8752 12.4826 53.6547C12.8684 53.4343 13.1348 53.0577 13.2817 52.5249C13.4286 51.9922 13.5022 51.2665 13.5022 50.3481V49.0806C13.5022 48.162 13.9615 47.7027 14.88 47.7027ZM22.0449 58.5046V17.7222C22.0449 16.8037 22.5041 16.3445 23.4226 16.3445H27.0048C27.9233 16.3445 28.3825 16.8037 28.3825 17.7222V52.4423C28.3825 53.0668 28.502 53.4986 28.7408 53.7374C28.9797 53.9763 29.4113 54.0956 30.0359 54.0956H36.1533C37.0718 54.0956 37.531 54.5549 37.531 55.4735V59.0557C37.531 59.9742 37.0718 60.4334 36.1533 60.4334H23.9737C23.2389 60.4334 22.7337 60.2956 22.4581 60.0201C22.1826 59.7445 22.0449 59.2394 22.0449 58.5046ZM52.7421 49.797V17.7222C52.7421 16.8037 53.2014 16.3445 54.1199 16.3445H57.7021C58.6206 16.3445 59.0799 16.8037 59.0799 17.7222V53.269C59.0799 58.0453 56.6917 60.4334 51.9155 60.4334H46.3492C41.5729 60.4334 39.1848 58.0452 39.1848 53.269V17.7222C39.1848 16.8037 39.6441 16.3445 40.5625 16.3445H44.1447C45.0632 16.3445 45.5226 16.8037 45.5226 17.7222V49.797C45.5226 51.4871 45.7797 52.626 46.2941 53.2138C46.8084 53.8017 47.6903 54.0956 48.9395 54.0956H49.2701C50.5927 54.0956 51.5021 53.8109 51.9981 53.2415C52.494 52.672 52.7421 51.5239 52.7421 49.797ZM62.3871 58.5046V18.2734C62.3871 17.5386 62.5249 17.0334 62.8004 16.7578C63.076 16.4823 63.5812 16.3445 64.316 16.3445H74.5667C79.343 16.3445 81.7311 18.7326 81.7311 23.5089V33.2085C81.7311 34.0903 81.4188 35.1558 80.7941 36.405C80.6104 36.7356 80.6472 37.048 80.9044 37.3419C82.0801 38.591 82.668 40.0607 82.668 41.7508V53.269C82.668 58.0453 80.2798 60.4334 75.5036 60.4334H64.316C63.0301 60.4334 62.3871 59.7906 62.3871 58.5046ZM72.9132 40.6486H70.3782C69.7536 40.6486 69.3219 40.768 69.083 41.0068C68.8443 41.2456 68.7248 41.6773 68.7248 42.3019V52.4424C68.7248 53.0669 68.8443 53.4987 69.083 53.7375C69.3219 53.9763 69.7535 54.0957 70.3782 54.0957H72.3071C73.7767 54.0957 74.8147 53.8753 75.4209 53.4344C76.0271 52.9935 76.3301 51.9647 76.3301 50.3481V44.3962C76.3301 42.8898 76.0638 41.8978 75.5311 41.4201C74.9983 40.9425 74.1257 40.6853 72.9132 40.6486ZM71.3702 22.6823H70.3782C69.7536 22.6823 69.3219 22.8017 69.083 23.0406C68.8443 23.2793 68.7248 23.7111 68.7248 24.3357V32.6574C68.7248 33.2453 68.8443 33.6679 69.083 33.925C69.3219 34.1822 69.7535 34.3107 70.3782 34.3107H71.3702C72.8399 34.3107 73.8777 34.0903 74.4839 33.6494C75.0902 33.2085 75.3932 32.1797 75.3932 30.5631V26.4298C75.3932 24.8132 75.0902 23.7844 74.4839 23.3435C73.8777 22.9026 72.8398 22.6823 71.3702 22.6823Z" fill="white"/>
</svg>
